<?xml version="1.0" encoding="UTF-8"?>
<!DOCTYPE svg PUBLIC "-//W3C//DTD SVG 1.1//EN" "http://www.w3.org/Graphics/SVG/1.1/DTD/svg11.dtd">
<!-- Creator: CorelDRAW X8 -->
<svg xmlns="http://www.w3.org/2000/svg" xml:space="preserve" width="0.74489in" height="0.95189in" version="1.1" style="shape-rendering:geometricPrecision; text-rendering:geometricPrecision; image-rendering:optimizeQuality; fill-rule:evenodd; clip-rule:evenodd"
viewBox="0 0 746 953"
 xmlns:xlink="http://www.w3.org/1999/xlink">
 <defs>
  <style type="text/css">
   <![CDATA[
    .str1 {stroke:black;stroke-width:13.9045}
    .str0 {stroke:#FEFEFE;stroke-width:13.9045}
    .str2 {stroke:black;stroke-width:13.9045;stroke-linecap:round}
    .fil0 {fill:none}
    .fil3 {fill:none;fill-rule:nonzero}
    .fil1 {fill:black;fill-rule:nonzero}
    .fil2 {fill:red;fill-rule:nonzero}
   ]]>
  </style>
 </defs>
 <g id="Layer_x0020_1">
  <metadata id="CorelCorpID_0Corel-Layer"/>
  <rect class="fil0 str0" x="11" y="7" width="728" height="938"/>
  <path class="fil1 str1" d="M239 306l0 230 -227 0 0 377 100 0 0 -119 3 0c0,50 0,101 0,152l-3 0 0 -29 -105 0 0 -386 229 0 0 -222 -62 0c0,-100 0,-200 0,-300l398 0 0 300 -63 0 0 222 229 0 0 386 -104 0 0 29 -4 0c0,-51 0,-102 0,-152l4 0 0 119 100 0 0 -377 -228 0 0 -419 -267 0 0 189zm270 -191l0 189 59 0 0 -291 -391 0 0 291 59 0 0 -191 273 0 0 2 0 0z"/>
  <g id="_1277192175440">
   <path class="fil2 str1" d="M288 217l51 0 -51 0zm0 0l0 0z"/>
   <path id="_1" class="fil3 str2" d="M288 217l51 0m-51 0l0 0z"/>
  </g>
  <line class="fil3 str2" x1="400" y1="217" x2="452" y2= "217" />
  <path class="fil3 str2" d="M392 342c-15,33 -32,35 -49,0"/>
  <path class="fil3 str1" d="M344 287c0,0 0,0 0,0 0,14 -12,26 -28,26 -15,0 -27,-12 -27,-26 0,0 0,0 0,0 0,0 0,0 0,0 0,-15 12,-26 27,-26 16,0 28,11 28,26 0,0 0,0 0,0l0 0z"/>
  <path class="fil3 str1" d="M449 287c0,0 0,0 0,0 0,14 -12,26 -28,26 -17,0 -29,-12 -29,-26 0,0 0,0 0,0 0,0 0,0 0,0 0,-15 12,-26 29,-26 16,0 28,11 28,26 0,0 0,0 0,0z"/>
  <path class="fil3 str1" d="M324 287c0,13 -4,25 -8,25 -3,0 -6,-12 -6,-25 0,-14 3,-25 6,-25 4,0 8,11 8,25l0 0z"/>
  <path class="fil3 str1" d="M428 287c0,13 -3,25 -7,25 -4,0 -8,-12 -8,-25 0,-14 4,-25 8,-25 4,0 7,11 7,25l0 0z"/>
  <line class="fil3 str1" x1="308" y1="441" x2="426" y2= "441" />
  <line class="fil3 str1" x1="121" y1="945" x2="644" y2= "945" />
 </g>
</svg>
