<?xml version="1.0" encoding="UTF-8"?>
<!DOCTYPE svg PUBLIC "-//W3C//DTD SVG 1.1//EN" "http://www.w3.org/Graphics/SVG/1.1/DTD/svg11.dtd">
<!-- Creator: CorelDRAW X8 -->
<svg xmlns="http://www.w3.org/2000/svg" xml:space="preserve" width="0.734047in" height="0.944075in" version="1.1" style="shape-rendering:geometricPrecision; text-rendering:geometricPrecision; image-rendering:optimizeQuality; fill-rule:evenodd; clip-rule:evenodd"
viewBox="0 0 733 943"
 xmlns:xlink="http://www.w3.org/1999/xlink">
 <defs>
  <style type="text/css">
   <![CDATA[
    .str0 {stroke:black;stroke-width:13.8669}
    .str2 {stroke:#FEFEFE;stroke-width:6.93543}
    .str1 {stroke:black;stroke-width:13.8669;stroke-linecap:round}
    .fil0 {fill:none}
    .fil2 {fill:none;fill-rule:nonzero}
    .fil1 {fill:red;fill-rule:nonzero}
   ]]>
  </style>
 </defs>
 <g id="Layer_x0020_1">
  <metadata id="CorelCorpID_0Corel-Layer"/>
  <polyline class="fil0 str0" points="293,341 293,402 175,402 175,506 228,506 228,474 228,634 169,634 169,687 293,687 293,634 433,634 433,687 556,687 556,634 498,634 498,474 498,506 551,506 551,402 433,402 433,288 293,288 293,341 260,341 260,259 465,259 465,341 433,341 "/>
  <g id="_1277192236880">
   <path class="fil1 str0" d="M318 317l27 0 -27 0zm0 0l0 0z"/>
   <path id="_1" class="fil2 str1" d="M318 317l27 0m-27 0l0 0z"/>
  </g>
  <line class="fil2 str1" x1="377" y1="317" x2="404" y2= "317" />
  <path class="fil2 str1" d="M373 351c-8,9 -16,9 -25,0"/>
  <path class="fil2 str0" d="M348 335c0,0 0,0 0,0 0,4 -6,8 -14,8 -9,0 -15,-4 -15,-8 0,0 0,0 0,0 0,0 0,0 0,0 0,-3 6,-6 15,-6 8,0 14,3 14,6 0,0 0,0 0,0l0 0z"/>
  <path class="fil2 str0" d="M403 335c0,0 0,0 0,0 0,4 -6,8 -15,8 -7,0 -14,-4 -14,-8 0,0 0,0 0,0 0,0 0,0 0,0 0,-3 7,-6 14,-6 9,0 15,3 15,6 0,0 0,0 0,0z"/>
  <path class="fil2 str0" d="M337 336c0,3 -2,7 -3,7 -2,0 -4,-4 -4,-7 0,-4 2,-7 4,-7 1,0 3,3 3,7l0 0z"/>
  <path class="fil2 str0" d="M393 336c0,3 -3,7 -5,7 -2,0 -3,-4 -3,-7 0,-4 1,-7 3,-7 2,0 5,3 5,7l0 0z"/>
  <line class="fil2 str0" x1="330" y1="377" x2="391" y2= "377" />
  <rect class="fil2 str2" x="3" y="3" width="726" height="936"/>
 </g>
</svg>
