<?xml version="1.0" encoding="UTF-8"?>
<!DOCTYPE svg PUBLIC "-//W3C//DTD SVG 1.1//EN" "http://www.w3.org/Graphics/SVG/1.1/DTD/svg11.dtd">
<!-- Creator: CorelDRAW X8 -->
<svg xmlns="http://www.w3.org/2000/svg" xml:space="preserve" width="5.69835in" height="1.34553in" version="1.1" style="shape-rendering:geometricPrecision; text-rendering:geometricPrecision; image-rendering:optimizeQuality; fill-rule:evenodd; clip-rule:evenodd"
viewBox="0 0 5702 1346"
 xmlns:xlink="http://www.w3.org/1999/xlink">
 <defs>
  <style type="text/css">
   <![CDATA[
    .str0 {stroke:black;stroke-width:13.8949}
    .str1 {stroke:black;stroke-width:13.8949;stroke-linecap:round}
    .str2 {stroke:black;stroke-width:13.8949;stroke-linecap:round;stroke-linejoin:round}
    .fil0 {fill:none;fill-rule:nonzero}
    .fil1 {fill:red;fill-rule:nonzero}
   ]]>
  </style>
 </defs>
 <g id="Layer_x0020_1">
  <metadata id="CorelCorpID_0Corel-Layer"/>
  <polyline class="fil0 str0" points="5102,261 5102,453 4836,453 4836,778 4957,778 4957,674 4957,1177 4824,1177 4824,1339 5102,1339 5102,1177 5417,1177 5417,1339 5695,1339 5695,1177 5562,1177 5562,674 5562,778 5683,778 5683,453 5417,453 5417,98 5102,98 5102,261 5030,261 5030,9 5489,9 5489,261 5417,261 "/>
  <g>
   <path class="fil1" d="M5159 150l61 0 -61 0zm0 0l0 0z"/>
   <path id="1" class="fil0 str1" d="M5159 150l61 0m-61 0l0 0z"/>
  </g>
  <line class="fil0 str1" x1="5292" y1="150" x2="5354" y2= "150" />
  <path class="fil0 str1" d="M5287 323c-17,28 -38,29 -58,0"/>
  <path class="fil0 str0" d="M5227 246c0,0 0,0 0,0 0,12 -15,22 -33,22 -19,0 -34,-10 -34,-22 0,0 0,0 0,0 0,0 0,0 0,0 0,-12 15,-22 34,-22 18,0 33,10 33,22 0,0 0,0 0,0l0 0z"/>
  <path class="fil0 str0" d="M5350 246c0,0 0,0 0,0 0,12 -15,22 -33,22 -18,0 -33,-10 -33,-22 0,0 0,0 0,0 0,0 0,0 0,0 0,-12 15,-22 33,-22 18,0 33,10 33,22 0,0 0,0 0,0z"/>
  <path class="fil0 str0" d="M5202 246c0,12 -4,21 -8,21 -5,0 -9,-9 -9,-21 0,-12 4,-21 9,-21 4,0 8,9 8,21l0 0z"/>
  <path class="fil0 str0" d="M5325 246c0,12 -3,21 -8,21 -5,0 -8,-9 -8,-21 0,-12 3,-21 8,-21 5,0 8,9 8,21l0 0z"/>
  <path class="fil0 str2" d="M5344 408c-57,-51 -109,-52 -169,0"/>
  <polyline class="fil0 str0" points="3890,259 3890,449 3623,449 3623,772 3744,772 3744,670 3744,1169 3610,1169 3610,1330 3890,1330 3890,1169 4206,1169 4206,1330 4485,1330 4485,1169 4351,1169 4351,670 4351,772 4473,772 4473,449 4206,449 4206,97 3890,97 3890,259 3817,259 3817,9 4278,9 4278,259 4206,259 "/>
  <g>
   <path class="fil1" d="M3947 185l61 -29 -61 29zm0 0l0 0z"/>
   <path id="1" class="fil0 str1" d="M3947 185l61 -29m-61 29l0 0z"/>
  </g>
  <line class="fil0 str1" x1="4080" y1="156" x2="4142" y2= "185" />
  <path class="fil0 str1" d="M4075 320c-17,28 -38,30 -58,0"/>
  <path class="fil0 str0" d="M4015 244c0,0 0,0 0,0 0,12 -15,22 -34,22 -18,0 -33,-10 -33,-22 0,0 0,0 0,0 0,0 0,0 0,0 0,-12 15,-22 33,-22 19,0 34,10 34,22 0,0 0,0 0,0l0 0z"/>
  <path class="fil0 str0" d="M4139 244c0,0 0,0 0,0 0,12 -15,22 -34,22 -18,0 -33,-10 -33,-22 0,0 0,0 0,0 0,0 0,0 0,0 0,-12 15,-22 33,-22 19,0 34,10 34,22 0,0 0,0 0,0z"/>
  <path class="fil0 str0" d="M3990 244c0,12 -4,21 -9,21 -4,0 -8,-9 -8,-21 0,-12 4,-21 8,-21 5,0 9,9 9,21l0 0z"/>
  <path class="fil0 str0" d="M4114 244c0,12 -4,21 -9,21 -4,0 -8,-9 -8,-21 0,-12 4,-21 8,-21 5,0 9,9 9,21l0 0z"/>
  <path class="fil0 str2" d="M4133 405c-42,-37 -126,-46 -170,0"/>
  <polyline class="fil0 str0" points="2700,258 2700,451 2438,451 2438,776 2557,776 2557,672 2557,1175 2426,1175 2426,1338 2700,1338 2700,1175 3010,1175 3010,1338 3284,1338 3284,1175 3153,1175 3153,672 3153,776 3272,776 3272,451 3010,451 3010,96 2700,96 2700,258 2629,258 2629,7 3082,7 3082,258 3010,258 "/>
  <g>
   <path class="fil1" d="M2751 184l58 0 -58 0zm0 0l0 0z"/>
   <path id="1" class="fil0 str1" d="M2751 184l58 0m-58 0l0 0z"/>
  </g>
  <line class="fil0 str1" x1="2880" y1="184" x2="2939" y2= "184" />
  <path class="fil0 str1" d="M2871 291c-17,28 -37,29 -56,0"/>
  <path class="fil0 str0" d="M2816 243c0,0 0,1 0,1 0,12 -14,22 -32,22 -18,0 -32,-10 -32,-22 0,0 0,-1 0,-1 0,0 0,0 0,0 0,-12 14,-22 32,-22 18,0 32,10 32,22 0,0 0,0 0,0l0 0z"/>
  <path class="fil0 str0" d="M2936 243c0,0 0,1 0,1 0,12 -15,22 -32,22 -18,0 -33,-10 -33,-22 0,0 0,-1 0,-1 0,0 0,0 0,0 0,-12 15,-22 33,-22 17,0 32,10 32,22 0,0 0,0 0,0z"/>
  <path class="fil0 str0" d="M2792 244c0,11 -3,21 -8,21 -4,0 -8,-10 -8,-21 0,-12 4,-22 8,-22 5,0 8,10 8,22l0 0z"/>
  <path class="fil0 str0" d="M2912 244c0,11 -4,21 -8,21 -5,0 -9,-10 -9,-21 0,-12 4,-22 9,-22 4,0 8,10 8,22l0 0z"/>
  <line class="fil0 str0" x1="2775" y1="374" x2="2909" y2= "374" />
  <polyline class="fil0 str0" points="1477,261 1477,453 1208,453 1208,778 1330,778 1330,675 1330,1177 1196,1177 1196,1339 1477,1339 1477,1177 1796,1177 1796,1339 2077,1339 2077,1177 1942,1177 1942,675 1942,778 2065,778 2065,453 1796,453 1796,99 1477,99 1477,261 1404,261 1404,10 1869,10 1869,261 1796,261 "/>
  <g>
   <path class="fil1" d="M1535 170l61 0 -61 0zm0 0l0 0z"/>
   <path id="1" class="fil0 str1" d="M1535 170l61 0m-61 0l0 0z"/>
  </g>
  <line class="fil0 str1" x1="1669" y1="170" x2="1732" y2= "170" />
  <path class="fil0 str1" d="M1556 373c62,68 95,68 158,3"/>
  <path class="fil0 str1" d="M1662 313c-12,36 -35,37 -50,0"/>
  <path class="fil0 str0" d="M1612 246c0,0 0,0 0,0 0,13 -15,23 -34,23 -18,0 -33,-10 -33,-23 0,0 0,0 0,0 0,0 0,0 0,0 0,-12 15,-22 33,-22 19,0 34,10 34,22 0,0 0,0 0,0l0 0z"/>
  <path class="fil0 str0" d="M1722 246c0,0 0,0 0,0 0,13 -15,23 -34,23 -18,0 -33,-10 -33,-23 0,0 0,0 0,0 0,0 0,0 0,0 0,-12 15,-22 33,-22 19,0 34,10 34,22 0,0 0,0 0,0z"/>
  <path class="fil0 str0" d="M1587 246c0,12 -4,22 -9,22 -4,0 -8,-10 -8,-22 0,-11 4,-21 8,-21 5,0 9,10 9,21l0 0z"/>
  <path class="fil0 str0" d="M1697 246c0,12 -4,22 -9,22 -4,0 -8,-10 -8,-22 0,-11 4,-21 8,-21 5,0 9,10 9,21l0 0z"/>
  <polyline class="fil0 str0" points="285,260 285,452 19,452 19,776 140,776 140,673 140,1174 7,1174 7,1336 285,1336 285,1174 600,1174 600,1336 878,1336 878,1174 745,1174 745,673 745,776 866,776 866,452 600,452 600,98 285,98 285,260 213,260 213,9 673,9 673,260 600,260 "/>
  <g>
   <path class="fil1" d="M346 142l60 0 -60 0zm0 0l0 0z"/>
   <path id="1" class="fil0 str1" d="M346 142l60 0m-60 0l0 0z"/>
  </g>
  <line class="fil0 str1" x1="479" y1="142" x2="539" y2= "142" />
  <path class="fil0 str1" d="M358 349c50,114 116,111 157,0"/>
  <path class="fil0 str1" d="M515 349c-57,54 -93,57 -157,0"/>
  <path class="fil0 str1" d="M468 312c-12,36 -35,37 -50,0"/>
  <path class="fil0 str0" d="M418 245c0,0 0,0 0,0 0,13 -14,22 -33,22 -18,0 -33,-9 -33,-22 0,0 0,0 0,0 0,0 0,0 0,0 0,-12 15,-22 33,-22 19,0 33,10 33,22 0,0 0,0 0,0l0 0z"/>
  <path class="fil0 str0" d="M527 245c0,0 0,0 0,0 0,13 -15,22 -33,22 -18,0 -33,-9 -33,-22 0,0 0,0 0,0 0,0 0,0 0,0 0,-12 15,-22 33,-22 18,0 33,10 33,22 0,0 0,0 0,0z"/>
  <path class="fil0 str0" d="M394 245c0,12 -4,22 -9,22 -5,0 -8,-10 -8,-22 0,-11 3,-21 8,-21 5,0 9,10 9,21l0 0z"/>
  <path class="fil0 str0" d="M502 245c0,12 -3,22 -8,22 -5,0 -8,-10 -8,-22 0,-11 3,-21 8,-21 5,0 8,10 8,21l0 0z"/>
  <line class="fil0 str1" x1="559" y1="346" x2="539" y2= "304" />
  <line class="fil0 str1" x1="318" y1="346" x2="346" y2= "304" />
 </g>
</svg>
