<?xml version="1.0" encoding="UTF-8"?>
<!DOCTYPE svg PUBLIC "-//W3C//DTD SVG 1.1//EN" "http://www.w3.org/Graphics/SVG/1.1/DTD/svg11.dtd">
<!-- Creator: CorelDRAW X8 -->
<svg xmlns="http://www.w3.org/2000/svg" xml:space="preserve" width="5.6485in" height="1.34916in" version="1.1" style="shape-rendering:geometricPrecision; text-rendering:geometricPrecision; image-rendering:optimizeQuality; fill-rule:evenodd; clip-rule:evenodd"
viewBox="0 0 5653 1350"
 xmlns:xlink="http://www.w3.org/1999/xlink">
 <defs>
  <style type="text/css">
   <![CDATA[
    .str0 {stroke:black;stroke-width:13.8963}
    .str1 {stroke:black;stroke-width:13.8963;stroke-linecap:round}
    .fil2 {fill:none;fill-rule:nonzero}
    .fil0 {fill:black;fill-rule:nonzero}
    .fil1 {fill:red;fill-rule:nonzero}
   ]]>
  </style>
 </defs>
 <g id="Layer_x0020_1">
  <metadata id="CorelCorpID_0Corel-Layer"/>
  <path class="fil0 str0" d="M4819 431l0 326 -379 0 0 538 166 0 0 -170 7 0c0,73 0,146 0,218l-7 0 0 -41 -172 0 0 -552 379 0 0 -316 -103 0c0,-142 0,-285 0,-427l660 0 0 427 -103 0 0 316 379 0 0 552 -172 0 0 41 -7 0c0,-72 0,-145 0,-218l7 0 0 170 166 0 0 -538 -379 0 0 -595 -442 0 0 269zm448 -272l0 269 97 0 0 -415 -648 0 0 415 97 0 0 -272 454 0 0 3z"/>
  <g>
   <path class="fil1" d="M4887 304l84 0 -84 0zm0 0l0 0z"/>
   <path id="1" class="fil2 str1" d="M4887 304l84 0m-84 0l0 0z"/>
  </g>
  <line class="fil2 str1" x1="5072" y1="304" x2="5158" y2= "304" />
  <path class="fil2 str1" d="M5060 482c-24,47 -53,50 -81,0"/>
  <path class="fil2 str0" d="M4981 403c0,0 0,0 0,0 0,20 -21,37 -46,37 -26,0 -47,-17 -47,-37 0,0 0,0 0,0 0,0 0,0 0,0 0,-21 21,-37 47,-37 25,0 46,16 46,37 0,0 0,0 0,0l0 0z"/>
  <path class="fil2 str0" d="M5153 403c0,0 0,0 0,0 0,20 -21,37 -46,37 -26,0 -47,-17 -47,-37 0,0 0,0 0,0 0,0 0,0 0,0 0,-21 21,-37 47,-37 25,0 46,16 46,37 0,0 0,0 0,0z"/>
  <path class="fil2 str0" d="M4946 403c0,20 -5,36 -11,36 -7,0 -12,-16 -12,-36 0,-20 5,-36 12,-36 6,0 11,16 11,36l0 0z"/>
  <path class="fil2 str0" d="M5118 403c0,20 -5,36 -11,36 -7,0 -12,-16 -12,-36 0,-20 5,-36 12,-36 6,0 11,16 11,36l0 0z"/>
  <line class="fil2 str0" x1="4922" y1="622" x2="5115" y2= "622" />
  <path class="fil0 str0" d="M3670 321l0 240 -283 0 0 396 122 0 0 -125 7 0 0 511 -7 0 0 -380 -129 0 0 -408 284 0 0 -231 -77 0 0 -317 496 0 0 317 -77 0 0 231 283 0 0 408 -129 0 0 380 -6 0c0,-170 0,-341 0,-511l6 0 0 125 123 0 0 -396 -284 0 0 -438 -329 0 0 198zm336 -201l0 198 71 0 0 -304 -484 0 0 304 71 0 0 -201 342 0 0 3z"/>
  <g>
   <path class="fil1" d="M3728 230l64 0 -64 0zm0 0l0 0z"/>
   <path id="1" class="fil2 str1" d="M3728 230l64 0m-64 0l0 0z"/>
  </g>
  <line class="fil2 str1" x1="3870" y1="229" x2="3935" y2= "229" />
  <path class="fil2 str1" d="M3860 361c-18,35 -40,36 -61,0"/>
  <path class="fil2 str0" d="M3800 302c0,0 0,0 0,0 0,16 -16,28 -35,28 -20,0 -36,-12 -36,-28 0,0 0,0 0,0 0,0 0,0 0,0 0,-15 16,-27 36,-27 19,0 35,12 35,27 0,0 0,0 0,0l0 0z"/>
  <path class="fil2 str0" d="M3932 302c0,0 0,0 0,0 0,16 -16,28 -36,28 -19,0 -35,-12 -35,-28 0,0 0,0 0,0 0,0 0,0 0,0 0,-15 16,-27 35,-27 20,0 36,12 36,27 0,0 0,0 0,0z"/>
  <path class="fil2 str0" d="M3774 303c0,14 -4,26 -9,26 -5,0 -9,-12 -9,-26 0,-15 4,-27 9,-27 5,0 9,12 9,27l0 0z"/>
  <path class="fil2 str0" d="M3905 303c0,14 -4,26 -9,26 -5,0 -9,-12 -9,-26 0,-15 4,-27 9,-27 5,0 9,12 9,27l0 0z"/>
  <line class="fil2 str0" x1="3755" y1="464" x2="3902" y2= "464" />
  <polyline class="fil2 str0" points="2486,260 2486,452 2223,452 2223,777 2343,777 2343,673 2343,1175 2212,1175 2212,1337 2486,1337 2486,1175 2796,1175 2796,1337 3070,1337 3070,1175 2939,1175 2939,673 2939,777 3058,777 3058,452 2796,452 2796,98 2486,98 2486,260 2414,260 2414,9 2868,9 2868,260 2796,260 "/>
  <g>
   <path class="fil1" d="M2542 187l60 0 -60 0zm0 0l0 0z"/>
   <path id="1" class="fil2 str1" d="M2542 187l60 0m-60 0l0 0z"/>
  </g>
  <line class="fil2 str1" x1="2673" y1="187" x2="2734" y2= "187" />
  <path class="fil2 str1" d="M2664 293c-16,28 -37,29 -56,0"/>
  <path class="fil2 str0" d="M2609 245c0,0 0,0 0,0 0,13 -15,23 -33,23 -18,0 -33,-10 -33,-23 0,0 0,0 0,0 0,0 0,0 0,0 0,-12 15,-22 33,-22 18,0 33,10 33,22 0,0 0,0 0,0l0 0z"/>
  <path class="fil2 str0" d="M2730 245c0,0 0,0 0,0 0,13 -14,23 -32,23 -19,0 -33,-10 -33,-23 0,0 0,0 0,0 0,0 0,0 0,0 0,-12 14,-22 33,-22 18,0 32,10 32,22 0,0 0,0 0,0z"/>
  <path class="fil2 str0" d="M2584 246c0,11 -3,21 -8,21 -5,0 -8,-10 -8,-21 0,-12 3,-22 8,-22 5,0 8,10 8,22l0 0z"/>
  <path class="fil2 str0" d="M2706 246c0,11 -4,21 -8,21 -5,0 -9,-10 -9,-21 0,-12 4,-22 9,-22 4,0 8,10 8,22l0 0z"/>
  <line class="fil2 str0" x1="2567" y1="376" x2="2703" y2= "376" />
  <polyline class="fil2 str0" points="1311,400 1311,529 1131,529 1131,747 1213,747 1213,677 1213,1015 1123,1015 1123,1124 1311,1124 1311,1015 1523,1015 1523,1124 1711,1124 1711,1015 1621,1015 1621,677 1621,747 1703,747 1703,529 1523,529 1523,291 1311,291 1311,400 1262,400 1262,231 1572,231 1572,400 1523,400 "/>
  <g>
   <path class="fil1" d="M1349 350l41 0 -41 0zm0 0l0 0z"/>
   <path id="1" class="fil2 str1" d="M1349 350l41 0m-41 0l0 0z"/>
  </g>
  <line class="fil2 str1" x1="1439" y1="350" x2="1481" y2= "350" />
  <path class="fil2 str1" d="M1433 422c-11,18 -25,19 -39,0"/>
  <path class="fil2 str0" d="M1395 390c0,0 0,0 0,0 0,8 -10,15 -22,15 -13,0 -23,-7 -23,-15 0,0 0,0 0,0 0,0 0,0 0,0 0,-9 10,-15 23,-15 12,0 22,6 22,15 0,0 0,0 0,0l0 0z"/>
  <path class="fil2 str0" d="M1478 390c0,0 0,0 0,0 0,8 -10,15 -22,15 -12,0 -23,-7 -23,-15 0,0 0,0 0,0 0,0 0,0 0,0 0,-9 11,-15 23,-15 12,0 22,6 22,15 0,0 0,0 0,0z"/>
  <path class="fil2 str0" d="M1378 390c0,8 -2,14 -5,14 -3,0 -6,-6 -6,-14 0,-8 3,-15 6,-15 3,0 5,7 5,15l0 0z"/>
  <path class="fil2 str0" d="M1462 390c0,8 -3,14 -6,14 -3,0 -6,-6 -6,-14 0,-8 3,-15 6,-15 3,0 6,7 6,15l0 0z"/>
  <line class="fil2 str0" x1="1366" y1="478" x2="1460" y2= "478" />
  <polyline class="fil2 str0" points="149,486 149,574 13,574 13,723 75,723 75,675 75,906 7,906 7,980 149,980 149,906 309,906 309,980 450,980 450,906 383,906 383,675 383,723 444,723 444,574 309,574 309,411 149,411 149,486 112,486 112,371 346,371 346,486 309,486 "/>
  <g>
   <path class="fil1" d="M178 452l30 0 -30 0zm0 0l0 0z"/>
   <path id="1" class="fil2 str1" d="M178 452l30 0m-30 0l0 0z"/>
  </g>
  <line class="fil2 str1" x1="245" y1="452" x2="277" y2= "452" />
  <path class="fil2 str1" d="M241 501c-9,13 -20,13 -30,0"/>
  <path class="fil2 str0" d="M212 479c0,0 0,0 0,0 0,6 -8,10 -17,10 -9,0 -17,-4 -17,-10 0,0 0,0 0,0 0,0 0,0 0,0 0,-6 8,-10 17,-10 9,0 17,4 17,10 0,0 0,0 0,0l0 0z"/>
  <path class="fil2 str0" d="M275 479c0,0 0,0 0,0 0,6 -8,10 -17,10 -9,0 -17,-4 -17,-10 0,0 0,0 0,0 0,0 0,0 0,0 0,-6 8,-10 17,-10 9,0 17,4 17,10 0,0 0,0 0,0z"/>
  <path class="fil2 str0" d="M199 479c0,6 -2,10 -4,10 -2,0 -4,-4 -4,-10 0,-5 2,-10 4,-10 2,0 4,5 4,10l0 0z"/>
  <path class="fil2 str0" d="M262 479c0,6 -2,10 -4,10 -2,0 -4,-4 -4,-10 0,-5 2,-10 4,-10 2,0 4,5 4,10l0 0z"/>
  <line class="fil2 str0" x1="190" y1="539" x2="261" y2= "539" />
  <line class="fil2 str0" x1="3511" y1="1342" x2="4158" y2= "1342" />
  <line class="fil2 str0" x1="4606" y1="1342" x2="5474" y2= "1342" />
 </g>
</svg>
