<?xml version="1.0" encoding="UTF-8"?>
<!DOCTYPE svg PUBLIC "-//W3C//DTD SVG 1.1//EN" "http://www.w3.org/Graphics/SVG/1.1/DTD/svg11.dtd">
<!-- Creator: CorelDRAW X8 -->
<svg xmlns="http://www.w3.org/2000/svg" xml:space="preserve" width="4.30423in" height="3.34426in" version="1.1" style="shape-rendering:geometricPrecision; text-rendering:geometricPrecision; image-rendering:optimizeQuality; fill-rule:evenodd; clip-rule:evenodd"
viewBox="0 0 4303 3344"
 xmlns:xlink="http://www.w3.org/1999/xlink">
 <defs>
  <style type="text/css">
   <![CDATA[
    .str0 {stroke:black;stroke-width:6.93938}
    .str3 {stroke:black;stroke-width:6.93938;stroke-linejoin:round}
    .str1 {stroke:black;stroke-width:6.93938;stroke-linecap:round}
    .str2 {stroke:black;stroke-width:6.93938;stroke-linecap:round;stroke-linejoin:round}
    .fil2 {fill:none;fill-rule:nonzero}
    .fil0 {fill:black;fill-rule:nonzero}
    .fil1 {fill:red;fill-rule:nonzero}
   ]]>
  </style>
 </defs>
 <g id="Layer_x0020_1">
  <metadata id="CorelCorpID_0Corel-Layer"/>
  <path class="fil0 str0" d="M3703 2681l0 236 -273 0 0 388 120 0 0 -123 4 0c0,53 0,105 0,158l-4 0 0 -30 -124 0 0 -398 273 0 0 -228 -75 0c0,-103 0,-206 0,-309l477 0 0 309 -75 0 0 228 274 0 0 398 -124 0 0 30 -5 0c0,-53 0,-105 0,-158l5 0 0 123 119 0 0 -388 -273 0 0 -430 -319 0 0 194zm323 -196l0 194 71 0 0 -299 -468 0 0 299 70 0 0 -196 327 0 0 2 0 0z"/>
  <g id="_1661892225824">
   <path class="fil1 str0" d="M3752 2590l61 0 -61 0zm0 0l0 0z"/>
   <path id="_1" class="fil2 str1" d="M3752 2590l61 0m-61 0l0 0z"/>
  </g>
  <line class="fil2 str1" x1="3886" y1="2590" x2="3948" y2= "2590" />
  <path class="fil2 str1" d="M3877 2718c-17,35 -38,36 -58,0"/>
  <path class="fil2 str0" d="M3820 2661c0,0 0,0 0,0 0,15 -15,27 -33,27 -19,0 -33,-12 -33,-27 0,0 0,0 0,0 0,0 0,0 0,0 0,-15 14,-27 33,-27 18,0 33,12 33,27 0,0 0,0 0,0l0 0z"/>
  <path class="fil2 str0" d="M3944 2661c0,0 0,0 0,0 0,15 -14,27 -33,27 -19,0 -34,-12 -34,-27 0,0 0,0 0,0 0,0 0,0 0,0 0,-15 15,-27 34,-27 19,0 33,12 33,27 0,0 0,0 0,0z"/>
  <path class="fil2 str0" d="M3795 2661c0,14 -4,26 -8,26 -5,0 -9,-12 -9,-26 0,-14 4,-26 9,-26 4,0 8,12 8,26l0 0z"/>
  <path class="fil2 str0" d="M3919 2661c0,14 -3,26 -8,26 -5,0 -9,-12 -9,-26 0,-14 4,-26 9,-26 5,0 8,12 8,26l0 0z"/>
  <line class="fil2 str0" x1="3777" y1="2820" x2="3917" y2= "2820" />
  <path class="fil0 str0" d="M2874 2602l0 173 -204 0 0 286 88 0 0 -90 4 0 0 369 -4 0 0 -275 -93 0 0 -294 205 0 0 -167 -56 0 0 -228 358 0 0 228 -56 0 0 167 205 0 0 294 -93 0 0 275 -5 0c1,-123 0,-246 0,-369l5 0 0 90 89 0 0 -286 -205 0 0 -316 -238 0 0 143 0 0zm242 -145l0 142 52 0 0 -219 -349 0 0 219 51 0 0 -144 246 0 0 2 0 0z"/>
  <g id="_1661644131552">
   <path class="fil1 str0" d="M2916 2536l46 0 -46 0zm0 0l0 0z"/>
   <path id="_1_0" class="fil2 str1" d="M2916 2536l46 0m-46 0l0 0z"/>
  </g>
  <line class="fil2 str1" x1="3018" y1="2536" x2="3066" y2= "2536" />
  <path class="fil2 str1" d="M3011 2631c-13,25 -29,26 -44,0"/>
  <path class="fil2 str0" d="M2968 2589c0,0 0,0 0,0 0,10 -12,19 -26,19 -14,0 -25,-9 -25,-19 0,0 0,0 0,0 0,0 0,0 0,0 0,-11 11,-20 25,-20 14,0 26,9 26,20 0,0 0,0 0,0l0 0z"/>
  <path class="fil2 str0" d="M3063 2589c0,0 0,0 0,0 0,10 -12,19 -26,19 -14,0 -26,-9 -26,-19 0,0 0,0 0,0 0,0 0,0 0,0 0,-11 12,-20 26,-20 14,0 26,9 26,20 0,0 0,0 0,0z"/>
  <path class="fil2 str0" d="M2949 2589c0,10 -3,19 -7,19 -3,0 -6,-9 -6,-19 0,-11 3,-19 6,-19 4,0 7,8 7,19l0 0z"/>
  <path class="fil2 str0" d="M3044 2589c0,10 -3,19 -7,19 -3,0 -6,-9 -6,-19 0,-11 3,-19 6,-19 4,0 7,8 7,19l0 0z"/>
  <line class="fil2 str0" x1="2935" y1="2705" x2="3042" y2= "2705" />
  <polyline class="fil2 str0" points="2019,2558 2019,2697 1830,2697 1830,2931 1916,2931 1916,2856 1916,3219 1822,3219 1822,3336 2019,3336 2019,3219 2243,3219 2243,3336 2441,3336 2441,3219 2346,3219 2346,2856 2346,2931 2432,2931 2432,2697 2243,2697 2243,2441 2019,2441 2019,2558 1968,2558 1968,2377 2295,2377 2295,2558 2243,2558 "/>
  <g id="_1661895418144">
   <path class="fil1 str0" d="M2060 2505l43 0 -43 0zm0 0l0 0z"/>
   <path id="_1_1" class="fil2 str1" d="M2060 2505l43 0m-43 0l0 0z"/>
  </g>
  <line class="fil2 str1" x1="2155" y1="2505" x2="2198" y2= "2505" />
  <path class="fil2 str1" d="M2148 2582c-12,20 -27,21 -41,0"/>
  <path class="fil2 str0" d="M2108 2548c0,0 0,0 0,0 0,8 -11,16 -23,16 -14,0 -24,-8 -24,-16 0,0 0,0 0,0 0,0 0,0 0,0 0,-9 10,-17 24,-17 12,0 23,8 23,17 0,0 0,0 0,0l0 0z"/>
  <path class="fil2 str0" d="M2196 2548c0,0 0,0 0,0 0,8 -11,16 -24,16 -13,0 -23,-8 -23,-16 0,0 0,0 0,0 0,0 0,0 0,0 0,-9 10,-17 23,-17 13,0 24,8 24,17 0,0 0,0 0,0z"/>
  <path class="fil2 str0" d="M2090 2548c0,8 -2,15 -5,15 -4,0 -6,-7 -6,-15 0,-9 2,-16 6,-16 3,0 5,7 5,16l0 0z"/>
  <path class="fil2 str0" d="M2178 2548c0,8 -3,15 -6,15 -3,0 -6,-7 -6,-15 0,-9 3,-16 6,-16 3,0 6,7 6,16l0 0z"/>
  <line class="fil2 str0" x1="2078" y1="2642" x2="2176" y2= "2642" />
  <polyline class="fil2 str0" points="1171,2659 1171,2752 1042,2752 1042,2910 1101,2910 1101,2859 1101,3103 1036,3103 1036,3181 1171,3181 1171,3103 1325,3103 1325,3181 1460,3181 1460,3103 1395,3103 1395,2859 1395,2910 1454,2910 1454,2752 1325,2752 1325,2580 1171,2580 1171,2659 1136,2659 1136,2537 1360,2537 1360,2659 1325,2659 "/>
  <g id="_1661895419616">
   <path class="fil1 str0" d="M1199 2623l30 0 -30 0zm0 0l0 0z"/>
   <path id="_1_2" class="fil2 str1" d="M1199 2623l30 0m-30 0l0 0z"/>
  </g>
  <line class="fil2 str1" x1="1264" y1="2623" x2="1294" y2= "2623" />
  <path class="fil2 str1" d="M1259 2675c-7,13 -18,14 -27,0"/>
  <path class="fil2 str0" d="M1232 2652c0,0 0,0 0,0 0,6 -7,11 -16,11 -9,0 -16,-5 -16,-11 0,0 0,0 0,0 0,0 0,0 0,0 0,-6 7,-11 16,-11 9,0 16,5 16,11 0,0 0,0 0,0l0 0z"/>
  <path class="fil2 str0" d="M1292 2652c0,0 0,0 0,0 0,6 -7,11 -16,11 -9,0 -16,-5 -16,-11 0,0 0,0 0,0 0,0 0,0 0,0 0,-6 7,-11 16,-11 9,0 16,5 16,11 0,0 0,0 0,0z"/>
  <path class="fil2 str0" d="M1220 2652c0,6 -2,10 -4,10 -2,0 -4,-4 -4,-10 0,-6 2,-11 4,-11 2,0 4,5 4,11l0 0z"/>
  <path class="fil2 str0" d="M1280 2652c0,6 -2,10 -4,10 -2,0 -4,-4 -4,-10 0,-6 2,-11 4,-11 2,0 4,5 4,11l0 0z"/>
  <line class="fil2 str0" x1="1211" y1="2715" x2="1279" y2= "2715" />
  <polyline class="fil2 str0" points="332,2721 332,2784 235,2784 235,2892 279,2892 279,2858 279,3024 230,3024 230,3078 332,3078 332,3024 448,3024 448,3078 550,3078 550,3024 501,3024 501,2858 501,2892 546,2892 546,2784 448,2784 448,2668 332,2668 332,2721 306,2721 306,2638 475,2638 475,2721 448,2721 "/>
  <g id="_1661895423040">
   <path class="fil1 str0" d="M353 2697l23 0 -23 0zm0 0l0 0z"/>
   <path id="_1_3" class="fil2 str1" d="M353 2697l23 0m-23 0l0 0z"/>
  </g>
  <line class="fil2 str1" x1="402" y1="2697" x2="425" y2= "2697" />
  <path class="fil2 str1" d="M399 2732c-6,9 -14,10 -21,0"/>
  <path class="fil2 str0" d="M378 2716c0,0 0,0 0,0 0,4 -5,8 -12,8 -7,0 -12,-4 -12,-8 0,0 0,0 0,0 0,0 0,0 0,0 0,-4 5,-7 12,-7 7,0 12,3 12,7 0,0 0,0 0,0l0 0z"/>
  <path class="fil2 str0" d="M423 2716c0,0 0,0 0,0 0,4 -5,8 -11,8 -7,0 -13,-4 -13,-8 0,0 0,0 0,0 0,0 0,0 0,0 0,-4 6,-7 13,-7 6,0 11,3 11,7 0,0 0,0 0,0z"/>
  <path class="fil2 str0" d="M369 2716c0,4 -1,7 -3,7 -2,0 -3,-3 -3,-7 0,-4 1,-7 3,-7 2,0 3,3 3,7l0 0z"/>
  <path class="fil2 str0" d="M415 2716c0,4 -2,7 -3,7 -2,0 -4,-3 -4,-7 0,-4 2,-7 4,-7 1,0 3,3 3,7l0 0z"/>
  <line class="fil2 str0" x1="362" y1="2759" x2="414" y2= "2759" />
  <line class="fil2 str0" x1="2759" y1="3339" x2="3226" y2= "3339" />
  <line class="fil2 str0" x1="3550" y1="3339" x2="4176" y2= "3339" />
  <polyline class="fil2 str0" points="3758,187 3758,326 3566,326 3566,560 3653,560 3653,486 3653,848 3557,848 3557,966 3758,966 3758,848 3985,848 3985,966 4186,966 4186,848 4090,848 4090,486 4090,560 4177,560 4177,326 3985,326 3985,70 3758,70 3758,187 3705,187 3705,5 4037,5 4037,187 3985,187 "/>
  <g id="_1661895427232">
   <path class="fil1 str0" d="M3799 107l44 0 -44 0zm0 0l0 0z"/>
   <path id="_1_4" class="fil2 str1" d="M3799 107l44 0m-44 0l0 0z"/>
  </g>
  <line class="fil2 str1" x1="3895" y1="107" x2="3939" y2= "107" />
  <path class="fil2 str1" d="M3891 232c-12,20 -27,21 -42,0"/>
  <path class="fil2 str0" d="M3848 176c0,0 0,0 0,0 0,9 -11,16 -24,16 -13,0 -24,-7 -24,-16 0,0 0,0 0,0 0,0 0,0 0,0 0,-9 11,-16 24,-16 13,0 24,7 24,16 0,0 0,0 0,0l0 0z"/>
  <path class="fil2 str0" d="M3937 176c0,0 0,0 0,0 0,9 -11,16 -24,16 -13,0 -24,-7 -24,-16 0,0 0,0 0,0 0,0 0,0 0,0 0,-9 11,-16 24,-16 13,0 24,7 24,16 0,0 0,0 0,0z"/>
  <path class="fil2 str0" d="M3830 176c0,9 -3,15 -6,15 -3,0 -6,-6 -6,-15 0,-9 3,-15 6,-15 3,0 6,6 6,15l0 0z"/>
  <path class="fil2 str0" d="M3919 176c0,9 -3,15 -6,15 -3,0 -6,-6 -6,-15 0,-9 3,-15 6,-15 3,0 6,6 6,15l0 0z"/>
  <path class="fil2 str2" d="M3932 293c-41,-37 -79,-38 -122,0"/>
  <polyline class="fil2 str0" points="2883,185 2883,323 2690,323 2690,556 2777,556 2777,482 2777,842 2681,842 2681,959 2883,959 2883,842 3111,842 3111,959 3312,959 3312,842 3216,842 3216,482 3216,556 3304,556 3304,323 3111,323 3111,69 2883,69 2883,185 2830,185 2830,5 3163,5 3163,185 3111,185 "/>
  <g id="_1661895428224">
   <path class="fil1 str0" d="M2924 132l44 -21 -44 21zm0 0l0 0z"/>
   <path id="_1_5" class="fil2 str1" d="M2924 132l44 -21m-44 21l0 0z"/>
  </g>
  <line class="fil2 str1" x1="3020" y1="111" x2="3065" y2= "132" />
  <path class="fil2 str1" d="M3016 230c-12,20 -27,21 -41,0"/>
  <path class="fil2 str0" d="M2973 174c0,0 0,1 0,1 0,8 -11,16 -24,16 -14,0 -24,-8 -24,-16 0,0 0,-1 0,-1 0,0 0,0 0,0 0,-8 10,-15 24,-15 13,0 24,7 24,15 0,0 0,0 0,0l0 0z"/>
  <path class="fil2 str0" d="M3063 174c0,0 0,1 0,1 0,8 -11,16 -25,16 -13,0 -24,-8 -24,-16 0,0 0,-1 0,-1 0,0 0,0 0,0 0,-8 11,-15 24,-15 14,0 25,7 25,15 0,0 0,0 0,0z"/>
  <path class="fil2 str0" d="M2955 175c0,8 -3,15 -6,15 -4,0 -6,-7 -6,-15 0,-9 2,-15 6,-15 3,0 6,6 6,15l0 0z"/>
  <path class="fil2 str0" d="M3044 175c0,8 -2,15 -6,15 -3,0 -6,-7 -6,-15 0,-9 3,-15 6,-15 4,0 6,6 6,15l0 0z"/>
  <path class="fil2 str2" d="M3058 291c-31,-27 -90,-33 -123,0"/>
  <polyline class="fil2 str0" points="2024,185 2024,324 1835,324 1835,559 1921,559 1921,484 1921,847 1826,847 1826,964 2024,964 2024,847 2248,847 2248,964 2445,964 2445,847 2351,847 2351,484 2351,559 2437,559 2437,324 2248,324 2248,68 2024,68 2024,185 1973,185 1973,3 2299,3 2299,185 2248,185 "/>
  <g id="_1661895430976">
   <path class="fil1 str0" d="M2061 132l42 0 -42 0zm0 0l0 0z"/>
   <path id="_1_6" class="fil2 str1" d="M2061 132l42 0m-42 0l0 0z"/>
  </g>
  <line class="fil2 str1" x1="2154" y1="132" x2="2197" y2= "132" />
  <path class="fil2 str1" d="M2148 209c-13,20 -27,21 -41,0"/>
  <path class="fil2 str0" d="M2108 174c0,0 0,0 0,0 0,9 -11,16 -23,16 -13,0 -24,-7 -24,-16 0,0 0,0 0,0 0,0 0,0 0,0 0,-8 11,-15 24,-15 12,0 23,7 23,15 0,0 0,0 0,0l0 0z"/>
  <path class="fil2 str0" d="M2194 174c0,0 0,0 0,0 0,9 -10,16 -23,16 -13,0 -23,-7 -23,-16 0,0 0,0 0,0 0,0 0,0 0,0 0,-8 10,-15 23,-15 13,0 23,7 23,15 0,0 0,0 0,0z"/>
  <path class="fil2 str0" d="M2090 174c0,9 -2,16 -5,16 -3,0 -6,-7 -6,-16 0,-8 3,-15 6,-15 3,0 5,7 5,15l0 0z"/>
  <path class="fil2 str0" d="M2177 174c0,9 -3,16 -6,16 -3,0 -6,-7 -6,-16 0,-8 3,-15 6,-15 3,0 6,7 6,15l0 0z"/>
  <line class="fil2 str0" x1="2078" y1="269" x2="2175" y2= "269" />
  <polyline class="fil2 str0" points="1141,187 1141,326 947,326 947,560 1035,560 1035,486 1035,848 938,848 938,966 1141,966 1141,848 1371,848 1371,966 1575,966 1575,848 1477,848 1477,486 1477,560 1566,560 1566,326 1371,326 1371,70 1141,70 1141,187 1088,187 1088,6 1424,6 1424,187 1371,187 "/>
  <g id="_1661659835936">
   <path class="fil1 str0" d="M1183 121l44 0 -44 0zm0 0l0 0z"/>
   <path id="_1_7" class="fil2 str1" d="M1183 121l44 0m-44 0l0 0z"/>
  </g>
  <line class="fil2 str1" x1="1280" y1="121" x2="1325" y2= "121" />
  <path class="fil2 str1" d="M1198 268c45,49 69,49 114,2"/>
  <path class="fil2 str1" d="M1274 225c-8,25 -25,26 -35,0"/>
  <path class="fil2 str0" d="M1239 176c0,0 0,0 0,0 0,9 -11,16 -25,16 -13,0 -24,-7 -24,-16 0,0 0,0 0,0 0,0 0,0 0,0 0,-9 11,-15 24,-15 14,0 25,6 25,15 0,0 0,0 0,0l0 0z"/>
  <path class="fil2 str0" d="M1318 176c0,0 0,0 0,0 0,9 -11,16 -24,16 -14,0 -25,-7 -25,-16 0,0 0,0 0,0 0,0 0,0 0,0 0,-9 11,-15 25,-15 13,0 24,6 24,15 0,0 0,0 0,0z"/>
  <path class="fil2 str0" d="M1220 176c0,9 -2,16 -6,16 -3,0 -6,-7 -6,-16 0,-8 3,-15 6,-15 4,0 6,7 6,15l0 0z"/>
  <path class="fil2 str0" d="M1300 176c0,9 -3,16 -6,16 -4,0 -6,-7 -6,-16 0,-8 2,-15 6,-15 3,0 6,7 6,15l0 0z"/>
  <polyline class="fil2 str0" points="281,186 281,325 89,325 89,559 176,559 176,485 176,846 80,846 80,963 281,963 281,846 508,846 508,963 709,963 709,846 613,846 613,485 613,559 700,559 700,325 508,325 508,70 281,70 281,186 229,186 229,5 561,5 561,186 508,186 "/>
  <g id="_1661659837312">
   <path class="fil1 str0" d="M325 101l43 0 -43 0zm0 0l0 0z"/>
   <path id="_1_8" class="fil2 str1" d="M325 101l43 0m-43 0l0 0z"/>
  </g>
  <line class="fil2 str1" x1="421" y1="101" x2="464" y2= "101" />
  <path class="fil2 str1" d="M333 250c36,83 84,81 114,0"/>
  <path class="fil2 str1" d="M447 250c-41,39 -67,41 -114,0"/>
  <path class="fil2 str1" d="M413 224c-9,25 -25,26 -36,0"/>
  <path class="fil2 str0" d="M377 176c0,0 0,0 0,0 0,8 -11,16 -24,16 -13,0 -24,-8 -24,-16 0,0 0,0 0,0 0,0 0,0 0,0 0,-9 11,-16 24,-16 13,0 24,7 24,16 0,0 0,0 0,0l0 0z"/>
  <path class="fil2 str0" d="M456 176c0,0 0,0 0,0 0,8 -11,16 -24,16 -14,0 -24,-8 -24,-16 0,0 0,0 0,0 0,0 0,0 0,0 0,-9 10,-16 24,-16 13,0 24,7 24,16 0,0 0,0 0,0z"/>
  <path class="fil2 str0" d="M359 176c0,8 -3,15 -6,15 -3,0 -6,-7 -6,-15 0,-9 3,-15 6,-15 3,0 6,6 6,15l0 0z"/>
  <path class="fil2 str0" d="M438 176c0,8 -3,15 -6,15 -4,0 -7,-7 -7,-15 0,-9 3,-15 7,-15 3,0 6,6 6,15l0 0z"/>
  <line class="fil2 str1" x1="479" y1="248" x2="464" y2= "218" />
  <line class="fil2 str1" x1="305" y1="248" x2="325" y2= "218" />
  <polyline class="fil2 str0" points="3747,1400 3747,1538 3554,1538 3554,1773 3642,1773 3642,1698 3642,2061 3545,2061 3545,2177 3747,2177 3747,2061 3974,2061 3974,2177 4176,2177 4176,2061 4079,2061 4079,1698 4079,1773 4167,1773 4167,1538 3974,1538 3974,1283 3747,1283 3747,1400 3694,1400 3694,1219 4027,1219 4027,1400 3974,1400 "/>
  <g id="_1626691814736">
   <path class="fil1 str0" d="M3788 1341l44 0 -44 0zm0 0l0 0z"/>
   <path id="_1_9" class="fil2 str1" d="M3788 1341l44 0m-44 0l0 0z"/>
  </g>
  <line class="fil2 str1" x1="3887" y1="1341" x2="3930" y2= "1341" />
  <path class="fil2 str1" d="M3874 1416c-9,26 -25,27 -35,0"/>
  <line class="fil2 str0" x1="3904" y1="1475" x2="3808" y2= "1475" />
  <path class="fil2 str0" d="M3790 1363c1,56 41,57 40,0"/>
  <path class="fil2 str0" d="M3889 1363c1,56 40,57 40,0"/>
  <path class="fil2 str2" d="M3870 1814c0,7 -4,12 -10,12 -5,0 -9,-5 -9,-12 0,-6 4,-11 9,-11 6,0 10,5 10,11l0 0z"/>
  <polyline class="fil2 str0" points="2876,1397 2876,1536 2684,1536 2684,1770 2771,1770 2771,1696 2771,2058 2676,2058 2676,2175 2876,2175 2876,2058 3102,2058 3102,2175 3302,2175 3302,2058 3206,2058 3206,1696 3206,1770 3293,1770 3293,1536 3102,1536 3102,1280 2876,1280 2876,1397 2824,1397 2824,1216 3154,1216 3154,1397 3102,1397 "/>
  <g id="_1626691816720">
   <path class="fil1 str0" d="M2917 1338l43 0 -43 0zm0 0l0 0z"/>
   <path id="_1_10" class="fil2 str1" d="M2917 1338l43 0m-43 0l0 0z"/>
  </g>
  <line class="fil2 str1" x1="3015" y1="1338" x2="3058" y2= "1338" />
  <path class="fil2 str1" d="M3002 1411c6,24 -39,25 -36,0"/>
  <line class="fil2 str0" x1="3032" y1="1472" x2="2936" y2= "1472" />
  <path class="fil2 str2" d="M2977 1813c0,4 -2,7 -6,7 -3,0 -6,-3 -6,-7 0,-4 3,-7 6,-7 4,0 6,3 6,7l0 0z"/>
  <polyline class="fil2 str3" points="3010,1724 3003,1737 2990,1736 2985,1750 2968,1755 2975,1782 2996,1783 3000,1795 3021,1794 3031,1762 3018,1755 3018,1737 3010,1724 "/>
  <polygon class="fil2 str3" points="3016,1701 3031,1718 3041,1716 "/>
  <path class="fil2 str2" d="M2961 1375c0,9 -10,16 -22,16 -13,0 -22,-7 -22,-16 0,-9 9,-16 22,-16 12,0 22,7 22,16l0 0z"/>
  <path class="fil2 str2" d="M2944 1375c0,10 -3,18 -5,18 -3,0 -6,-8 -6,-18 0,-10 3,-18 6,-18 2,0 5,8 5,18l0 0z"/>
  <path class="fil2 str2" d="M3058 1375c0,9 -9,16 -22,16 -12,0 -21,-7 -21,-16 0,-9 9,-16 21,-16 13,0 22,7 22,16l0 0z"/>
  <path class="fil2 str2" d="M3042 1375c0,10 -3,18 -6,18 -2,0 -5,-8 -5,-18 0,-10 3,-18 5,-18 3,0 6,8 6,18z"/>
  <polyline class="fil2 str0" points="2018,1398 2018,1537 1830,1537 1830,1772 1915,1772 1915,1697 1915,2060 1821,2060 1821,2177 2018,2177 2018,2060 2241,2060 2241,2177 2437,2177 2437,2060 2343,2060 2343,1697 2343,1772 2429,1772 2429,1537 2241,1537 2241,1281 2018,1281 2018,1398 1967,1398 1967,1217 2292,1217 2292,1398 2241,1398 "/>
  <path class="fil2 str1" d="M2143 1406c7,20 -44,21 -40,0"/>
  <line class="fil2 str1" x1="2172" y1="1464" x2="2078" y2= "1464" />
  <polygon class="fil2 str3" points="2129,1739 2126,1752 2110,1753 2100,1767 2125,1795 2154,1792 2152,1775 2157,1757 2146,1739 "/>
  <path class="fil2 str2" d="M2097 1377c0,11 -9,21 -21,21 -12,0 -21,-10 -21,-21 0,-12 9,-21 21,-21 12,0 21,9 21,21l0 0z"/>
  <path class="fil2 str2" d="M2081 1376c0,10 -2,18 -5,18 -3,0 -5,-8 -5,-18 0,-10 2,-18 5,-18 3,0 5,8 5,18l0 0z"/>
  <path class="fil2 str1" d="M2217 1687c-33,12 -28,-56 -50,-43 -54,30 -13,-13 -49,2"/>
  <path class="fil2 str1" d="M2055 1895c26,45 13,7 40,38"/>
  <path class="fil2 str1" d="M2065 1871c19,37 30,4 36,29"/>
  <path class="fil2 str0" d="M2081 1656c3,0 5,1 7,2 2,2 4,4 5,6 3,4 6,9 8,14 2,5 4,10 8,14 1,2 3,4 5,5 3,2 5,2 7,2 3,0 6,-2 8,-4 3,-2 5,-4 7,-7 2,-2 4,-5 6,-7 2,-3 4,-5 7,-6 5,-2 9,-1 14,2 4,3 7,7 10,12 5,9 8,21 14,30 7,12 18,19 30,20 5,2 10,6 13,12 2,5 4,12 3,18 -1,7 -4,13 -8,17 -4,5 -9,7 -14,7 -3,0 -6,0 -8,-1 -3,0 -6,1 -8,3 -1,1 -2,2 -3,4 -1,2 -1,4 -1,6 0,3 1,7 3,10 3,7 8,12 11,18 4,6 5,12 5,19 -1,4 -1,7 -3,10 -2,3 -4,6 -6,8 -4,2 -8,3 -12,2 -4,-1 -7,-3 -11,-5 -6,-6 -11,-14 -16,-22 -5,-7 -11,-14 -18,-18 -4,-2 -8,-2 -12,-2 -4,1 -7,4 -10,8 -1,2 -2,5 -3,7 0,3 -1,6 -1,9 -1,3 -1,5 -2,8 -1,3 -3,5 -5,7 -2,2 -5,3 -8,3 -3,-1 -6,-3 -9,-5 -2,-3 -4,-6 -4,-9 -2,-4 -2,-7 -3,-11 -1,-7 -1,-15 -2,-22 -1,-8 -3,-16 -7,-21 -4,-6 -11,-8 -17,-9 -6,-1 -13,0 -19,0 -6,0 -13,-1 -18,-6 -3,-2 -5,-4 -7,-8 -1,-3 -2,-7 -2,-11 1,-3 2,-6 3,-8 1,-2 3,-4 5,-5 3,-4 8,-5 12,-7 4,-1 9,-2 13,-4 4,-2 9,-4 12,-9 4,-5 5,-13 5,-20 1,-8 0,-15 0,-22 -1,-8 0,-15 2,-22 2,-3 4,-6 6,-8 2,-2 5,-4 8,-4"/>
  <path class="fil2 str2" d="M2192 1377c0,11 -9,21 -20,21 -12,0 -21,-10 -21,-21 0,-12 9,-21 21,-21 11,0 20,9 20,21l0 0z"/>
  <path class="fil2 str2" d="M2176 1376c0,10 -2,18 -4,18 -3,0 -5,-8 -5,-18 0,-10 2,-18 5,-18 2,0 4,8 4,18z"/>
  <path class="fil2 str1" d="M2095 1330c-12,-7 -37,-6 -47,0"/>
  <path class="fil2 str1" d="M2198 1330c-13,-7 -37,-6 -47,0"/>
  <polyline class="fil2 str0" points="1134,1399 1134,1538 940,1538 940,1773 1028,1773 1028,1698 1028,2062 931,2062 931,2180 1134,2180 1134,2062 1363,2062 1363,2180 1565,2180 1565,2062 1468,2062 1468,1698 1468,1773 1556,1773 1556,1538 1363,1538 1363,1281 1134,1281 1134,1399 1081,1399 1081,1217 1416,1217 1416,1399 1363,1399 "/>
  <path class="fil2 str1" d="M1262 1407c7,20 -44,21 -41,0"/>
  <line class="fil2 str1" x1="1292" y1="1465" x2="1195" y2= "1465" />
  <path class="fil2 str2" d="M1215 1378c0,11 -10,21 -22,21 -12,0 -21,-10 -21,-21 0,-12 9,-21 21,-21 12,0 22,9 22,21l0 0z"/>
  <path class="fil2 str2" d="M1198 1377c0,10 -2,18 -5,18 -3,0 -5,-8 -5,-18 0,-10 2,-19 5,-19 3,0 5,9 5,19l0 0z"/>
  <path class="fil2 str1" d="M1085 1781c-16,-10 -21,46 1,65 18,16 -6,18 25,29"/>
  <path class="fil2 str1" d="M1057 1852c19,37 28,17 34,42"/>
  <path class="fil2 str2" d="M1314 1378c0,11 -10,21 -22,21 -12,0 -22,-10 -22,-21 0,-12 10,-21 22,-21 12,0 22,9 22,21l0 0z"/>
  <path class="fil2 str2" d="M1297 1377c0,10 -2,18 -5,18 -3,0 -5,-8 -5,-18 0,-10 2,-19 5,-19 3,0 5,9 5,19z"/>
  <path class="fil2 str1" d="M1213 1331c-12,-7 -38,-6 -48,0"/>
  <path class="fil2 str1" d="M1319 1331c-13,-7 -39,-6 -49,0"/>
  <path class="fil2 str1" d="M877 1510c15,-8 24,-16 30,-35 8,-14 15,4 37,-14"/>
  <path class="fil2 str1" d="M1051 1153c-29,1 -11,10 -35,17 4,45 -11,20 -9,43"/>
  <path class="fil2 str1" d="M1572 2230c-6,-20 13,-1 16,-15 15,-41 15,8 22,-36"/>
  <path class="fil2 str1" d="M1319 1959c1,17 17,15 27,13 7,1 19,-4 32,8"/>
  <path class="fil2 str0" d="M1313 1713c14,4 8,-1 21,6 8,5 -11,26 -12,36 -1,10 7,54 1,62 -25,-7 -34,5 -44,13 -19,9 -17,0 -37,1 -15,6 -15,26 -29,34 -5,-1 1,-42 0,-47 -1,-15 17,-14 29,-20 7,0 -7,-7 -7,-18 -18,-11 -20,-23 -24,-29 0,-31 35,0 36,-12 11,-11 2,-35 7,-37 8,1 6,0 25,1 12,19 23,12 34,10l0 0 0 0z"/>
  <path class="fil2 str1" d="M1403 1566c13,-2 19,10 18,29"/>
  <path class="fil2 str1" d="M1368 1581c11,32 17,-4 27,37"/>
  <path class="fil2 str1" d="M1398 1939c12,29 27,16 24,43"/>
  <path class="fil2 str1" d="M1414 1839c-7,22 -2,39 0,64"/>
  <path class="fil2 str1" d="M1403 1690c-1,-11 5,-13 7,-19 2,-3 4,-8 5,-10 1,-3 8,0 6,-10"/>
  <path class="fil2 str1" d="M1164 1557c8,3 11,-12 16,-14 4,-6 6,-10 12,-13 10,4 7,13 12,11"/>
  <path class="fil2 str1" d="M1126 1665c21,-4 14,4 21,7 11,3 6,0 16,3 25,9 9,29 27,30"/>
  <path class="fil2 str0" d="M1175 1608c6,-73 72,-17 79,26 23,45 80,50 101,-2 63,-9 -13,96 36,124 23,40 -45,50 -8,94 33,53 -34,126 -63,61 -28,-74 -35,-78 -49,11 9,47 -20,118 -62,73 -38,-40 4,-106 -23,-150 -20,-40 -100,3 -71,-68 9,-19 46,-50 72,-55 51,-8 35,-14 18,-42 -14,-19 -37,-42 -30,-72l0 0 0 0z"/>
  <polyline class="fil2 str0" points="270,1401 270,1539 76,1539 76,1772 164,1772 164,1698 164,2060 67,2060 67,2177 270,2177 270,2060 501,2060 501,2177 704,2177 704,2060 607,2060 607,1698 607,1772 696,1772 696,1539 501,1539 501,1283 270,1283 270,1401 217,1401 217,1220 554,1220 554,1401 501,1401 "/>
  <path class="fil2 str1" d="M400 1408c7,21 -45,21 -42,0"/>
  <line class="fil2 str1" x1="430" y1="1466" x2="332" y2= "1466" />
  <path class="fil2 str2" d="M352 1379c0,12 -10,21 -22,21 -12,0 -21,-9 -21,-21 0,-11 9,-21 21,-21 12,0 22,10 22,21l0 0z"/>
  <path class="fil2 str2" d="M335 1378c0,10 -2,18 -5,18 -2,0 -5,-8 -5,-18 0,-10 3,-18 5,-18 3,0 5,8 5,18l0 0z"/>
  <path class="fil2 str2" d="M451 1379c0,12 -10,21 -22,21 -12,0 -21,-9 -21,-21 0,-11 9,-21 21,-21 12,0 22,10 22,21l0 0z"/>
  <path class="fil2 str2" d="M435 1378c0,10 -3,18 -6,18 -3,0 -5,-8 -5,-18 0,-10 2,-18 5,-18 3,0 6,8 6,18z"/>
  <path class="fil2 str1" d="M350 1333c-13,-7 -38,-7 -49,0"/>
  <path class="fil2 str1" d="M456 1333c-12,-7 -38,-7 -48,0"/>
  <path class="fil2 str0" d="M632 1637c1,26 11,-18 17,20 1,9 7,29 9,38 3,-38 8,-9 11,-12 5,-8 -1,-26 0,-35 -1,-6 -5,-20 -10,-6"/>
  <polyline class="fil2 str2" points="359,1761 404,1830 368,1896 412,1849 421,1871 454,1879 439,1855 437,1836 464,1784 421,1819 359,1761 "/>
  <polygon class="fil2 str3" points="436,1736 102,1440 235,1761 83,1847 285,1816 321,1829 141,1970 340,1932 416,2187 431,1939 492,2020 462,1917 653,2010 608,1936 517,1836 570,1818 507,1782 695,1458 481,1724 404,1624 "/>
  <path class="fil2 str1" d="M118 1741c22,-12 -2,-38 28,-55"/>
  <path class="fil2 str1" d="M120 1667c1,11 -5,15 -7,26 -3,7 -10,8 -13,14"/>
  <path class="fil2 str1" d="M128 2017c-1,-9 -6,-5 -9,-13 -3,-41 -7,-69 9,-75"/>
  <path class="fil2 str1" d="M93 1946c-10,4 -11,21 0,27"/>
  <path class="fil2 str1" d="M348 1644c8,1 12,-1 18,-7"/>
  <path class="fil2 str1" d="M3 2167c2,15 3,28 11,33 6,5 -10,19 11,28"/>
  <path class="fil2 str1" d="M41 2145c0,4 -12,6 -12,18 1,7 9,13 11,21 2,8 -1,17 -1,19 3,22 17,-10 20,29"/>
  <path class="fil2 str1" d="M747 2230c3,-13 14,-13 18,-14 10,-19 2,-14 1,-32"/>
  <path class="fil2 str1" d="M756 2147c-19,6 1,31 -11,36 -12,5 -4,24 -15,29 -12,5 -12,-7 -31,17"/>
  <path class="fil2 str1" d="M572 1147c7,1 13,-3 18,-8 6,-3 13,0 16,6 7,9 10,21 10,32 3,8 12,8 16,14 10,10 14,27 13,43"/>
  <path class="fil2 str1" d="M552 1168c11,-2 24,1 31,12 9,14 8,16 15,31 1,6 0,29 4,33 8,6 11,4 3,18"/>
  <path class="fil2 str1" d="M103 1259c13,-74 63,-121 119,-123"/>
  <path class="fil2 str1" d="M143 1261c8,-67 104,-111 118,-84"/>
  <path class="fil2 str1" d="M513 1998c19,1 11,-10 34,-11"/>
  <path class="fil2 str1" d="M554 2003c0,24 -9,2 -23,16"/>
  <path class="fil2 str1" d="M332 2008c-19,3 2,-18 -26,-13"/>
  <path class="fil2 str1" d="M296 2005c-3,9 4,17 11,11"/>
  <path class="fil2 str1" d="M474 2072c-5,-9 -8,8 -9,8 -5,6 -8,-1 -12,4"/>
  <line class="fil2 str1" x1="455" y1="2111" x2="462" y2= "2102" />
 </g>
</svg>
