<?xml version="1.0" encoding="UTF-8"?>
<!DOCTYPE svg PUBLIC "-//W3C//DTD SVG 1.1//EN" "http://www.w3.org/Graphics/SVG/1.1/DTD/svg11.dtd">
<!-- Creator: CorelDRAW X8 -->
<svg xmlns="http://www.w3.org/2000/svg" xml:space="preserve" width="5.78994in" height="1.53127in" version="1.1" style="shape-rendering:geometricPrecision; text-rendering:geometricPrecision; image-rendering:optimizeQuality; fill-rule:evenodd; clip-rule:evenodd"
viewBox="0 0 5793 1532"
 xmlns:xlink="http://www.w3.org/1999/xlink">
 <defs>
  <style type="text/css">
   <![CDATA[
    .str0 {stroke:black;stroke-width:13.8943}
    .str3 {stroke:black;stroke-width:13.8943;stroke-linejoin:round}
    .str1 {stroke:black;stroke-width:13.8943;stroke-linecap:round}
    .str2 {stroke:black;stroke-width:13.8943;stroke-linecap:round;stroke-linejoin:round}
    .fil0 {fill:none;fill-rule:nonzero}
    .fil1 {fill:red;fill-rule:nonzero}
   ]]>
  </style>
 </defs>
 <g id="Layer_x0020_1">
  <metadata id="CorelCorpID_0Corel-Layer"/>
  <polyline class="fil0 str0" points="5193,373 5193,565 4926,565 4926,890 5047,890 5047,786 5047,1288 4914,1288 4914,1451 5193,1451 5193,1288 5508,1288 5508,1451 5787,1451 5787,1288 5653,1288 5653,786 5653,890 5774,890 5774,565 5508,565 5508,211 5193,211 5193,373 5120,373 5120,122 5580,122 5580,373 5508,373 "/>
  <g>
   <path class="fil1" d="M5250 292l61 0 -61 0zm0 0l0 0z"/>
   <path id="1" class="fil0 str1" d="M5250 292l61 0m-61 0l0 0z"/>
  </g>
  <line class="fil0 str1" x1="5387" y1="292" x2="5447" y2= "292" />
  <path class="fil0 str1" d="M5369 395c-12,36 -35,37 -50,0"/>
  <line class="fil0 str0" x1="5411" y1="476" x2="5277" y2= "476" />
  <path class="fil0 str0" d="M5253 322c1,78 56,78 55,0"/>
  <path class="fil0 str0" d="M5390 322c0,78 55,78 54,0"/>
  <path class="fil0 str2" d="M5363 947c0,9 -6,16 -13,16 -7,0 -13,-7 -13,-16 0,-8 6,-16 13,-16 7,0 13,8 13,16l0 0z"/>
  <polyline class="fil0 str0" points="3986,369 3986,561 3721,561 3721,886 3841,886 3841,783 3841,1285 3709,1285 3709,1447 3986,1447 3986,1285 4299,1285 4299,1447 4576,1447 4576,1285 4444,1285 4444,783 4444,886 4564,886 4564,561 4299,561 4299,207 3986,207 3986,369 3914,369 3914,118 4371,118 4371,369 4299,369 "/>
  <g>
   <path class="fil1" d="M4043 288l60 0 -60 0zm0 0l0 0z"/>
   <path id="1" class="fil0 str1" d="M4043 288l60 0m-60 0l0 0z"/>
  </g>
  <line class="fil0 str1" x1="4179" y1="288" x2="4239" y2= "288" />
  <path class="fil0 str1" d="M4161 387c8,35 -54,36 -49,0"/>
  <line class="fil0 str0" x1="4203" y1="473" x2="4070" y2= "473" />
  <path class="fil0 str2" d="M4127 945c0,6 -4,10 -9,10 -4,0 -8,-4 -8,-10 0,-5 4,-10 8,-10 5,0 9,5 9,10l0 0z"/>
  <polyline class="fil0 str3" points="4172,822 4162,840 4144,838 4138,858 4114,865 4123,903 4152,904 4158,921 4187,918 4201,875 4183,865 4183,839 4172,822 "/>
  <polygon class="fil0 str3" points="4181,791 4201,813 4215,811 "/>
  <path class="fil0 str2" d="M4103 338c0,13 -13,23 -30,23 -16,0 -30,-10 -30,-23 0,-12 14,-22 30,-22 17,0 30,10 30,22l0 0z"/>
  <path class="fil0 str2" d="M4080 338c0,14 -3,25 -7,25 -4,0 -7,-11 -7,-25 0,-14 3,-25 7,-25 4,0 7,11 7,25l0 0z"/>
  <path class="fil0 str2" d="M4239 338c0,13 -14,23 -30,23 -17,0 -31,-10 -31,-23 0,-12 14,-22 31,-22 16,0 30,10 30,22l0 0z"/>
  <path class="fil0 str2" d="M4216 338c0,14 -3,25 -7,25 -4,0 -7,-11 -7,-25 0,-14 3,-25 7,-25 4,0 7,11 7,25z"/>
  <polyline class="fil0 str0" points="2798,371 2798,563 2537,563 2537,888 2655,888 2655,785 2655,1288 2525,1288 2525,1451 2798,1451 2798,1288 3106,1288 3106,1451 3379,1451 3379,1288 3248,1288 3248,785 3248,888 3367,888 3367,563 3106,563 3106,208 2798,208 2798,371 2726,371 2726,119 3177,119 3177,371 3106,371 "/>
  <path class="fil0 str1" d="M2971 381c9,29 -61,30 -56,0"/>
  <line class="fil0 str1" x1="3011" y1="462" x2="2881" y2= "462" />
  <polygon class="fil0 str3" points="2952,843 2947,860 2926,861 2911,881 2946,920 2985,917 2984,894 2990,868 2975,843 "/>
  <path class="fil0 str2" d="M2907 341c0,16 -13,29 -29,29 -16,0 -29,-13 -29,-29 0,-16 13,-29 29,-29 16,0 29,13 29,29l0 0z"/>
  <path class="fil0 str2" d="M2885 340c0,13 -4,25 -7,25 -4,0 -7,-12 -7,-25 0,-14 3,-25 7,-25 3,0 7,11 7,25l0 0z"/>
  <path class="fil0 str1" d="M3074 771c-46,16 -39,-78 -71,-60 -73,42 -17,-17 -67,3"/>
  <path class="fil0 str1" d="M2848 1059c37,62 19,10 57,53"/>
  <path class="fil0 str1" d="M2863 1026c25,51 41,5 50,39"/>
  <path class="fil0 str0" d="M2885 728c3,0 7,1 9,3 3,2 6,4 8,7 5,6 8,13 11,20 3,7 6,15 11,20 2,3 4,6 7,7 3,2 7,3 10,2 4,0 8,-2 11,-5 3,-2 6,-6 9,-9 2,-4 5,-8 8,-11 3,-3 6,-6 10,-7 6,-3 13,-1 19,2 5,4 10,10 14,16 7,13 12,29 20,42 10,16 25,26 42,28 7,2 13,8 17,16 4,8 5,17 4,26 -1,9 -5,18 -10,23 -6,6 -13,10 -20,10 -4,0 -8,-1 -11,-1 -4,0 -8,0 -11,3 -2,2 -3,4 -4,6 -1,3 -1,5 -1,8 -1,5 1,10 3,15 5,8 11,15 16,23 5,9 7,18 6,28 0,5 -1,10 -4,14 -2,4 -5,8 -8,10 -5,3 -11,4 -16,3 -5,-1 -11,-4 -15,-7 -9,-8 -16,-19 -23,-30 -7,-10 -15,-20 -25,-25 -5,-3 -11,-4 -16,-3 -6,1 -11,5 -14,10 -2,4 -3,7 -4,11 -1,4 -2,8 -2,12 -1,4 -2,8 -3,12 -1,3 -3,7 -6,9 -3,3 -8,4 -12,4 -4,-1 -8,-3 -11,-7 -3,-3 -6,-8 -8,-12 -1,-5 -2,-10 -3,-15 -2,-11 -1,-21 -3,-32 -1,-10 -4,-21 -9,-28 -7,-8 -15,-11 -24,-12 -9,-1 -17,0 -26,-1 -9,0 -18,-1 -25,-7 -4,-3 -7,-7 -9,-12 -2,-4 -3,-10 -3,-15 1,-4 2,-8 4,-11 1,-3 4,-6 6,-8 5,-5 11,-7 17,-9 6,-2 12,-3 18,-6 6,-2 12,-6 16,-11 6,-8 8,-19 8,-29 1,-10 -1,-20 -1,-30 0,-11 0,-21 4,-30 2,-5 4,-9 8,-12 3,-3 7,-5 11,-5"/>
  <path class="fil0 str2" d="M3040 341c0,16 -13,29 -30,29 -16,0 -29,-13 -29,-29 0,-16 13,-29 29,-29 17,0 30,13 30,29l0 0z"/>
  <path class="fil0 str2" d="M3017 340c0,13 -3,25 -7,25 -3,0 -7,-12 -7,-25 0,-14 4,-25 7,-25 4,0 7,11 7,25z"/>
  <path class="fil0 str1" d="M2904 276c-17,-9 -51,-9 -65,0"/>
  <path class="fil0 str1" d="M3047 276c-17,-9 -52,-9 -66,0"/>
  <polyline class="fil0 str0" points="1573,372 1573,564 1305,564 1305,890 1427,890 1427,787 1427,1290 1293,1290 1293,1453 1573,1453 1573,1290 1890,1290 1890,1453 2170,1453 2170,1290 2036,1290 2036,787 2036,890 2158,890 2158,564 1890,564 1890,209 1573,209 1573,372 1500,372 1500,120 1963,120 1963,372 1890,372 "/>
  <path class="fil0 str1" d="M1751 383c10,28 -62,29 -57,0"/>
  <line class="fil0 str1" x1="1792" y1="464" x2="1658" y2= "464" />
  <path class="fil0 str2" d="M1685 342c0,16 -13,29 -30,29 -16,0 -30,-13 -30,-29 0,-16 14,-29 30,-29 17,0 30,13 30,29l0 0z"/>
  <path class="fil0 str2" d="M1662 341c0,14 -3,25 -7,25 -4,0 -7,-11 -7,-25 0,-14 3,-25 7,-25 4,0 7,11 7,25l0 0z"/>
  <path class="fil0 str1" d="M1504 901c-22,-14 -28,63 3,90 25,22 -9,25 34,41"/>
  <path class="fil0 str1" d="M1466 1000c27,50 39,24 47,58"/>
  <path class="fil0 str2" d="M1822 342c0,16 -14,29 -30,29 -17,0 -30,-13 -30,-29 0,-16 13,-29 30,-29 16,0 30,13 30,29l0 0z"/>
  <path class="fil0 str2" d="M1799 341c0,14 -3,25 -7,25 -4,0 -8,-11 -8,-25 0,-14 4,-25 8,-25 4,0 7,11 7,25z"/>
  <path class="fil0 str1" d="M1683 277c-18,-9 -53,-9 -67,0"/>
  <path class="fil0 str1" d="M1829 277c-18,-9 -53,-9 -67,0"/>
  <path class="fil0 str1" d="M1217 526c20,-12 33,-23 42,-49 11,-20 20,5 51,-19"/>
  <path class="fil0 str1" d="M1458 30c-40,2 -16,15 -48,25 5,62 -15,28 -13,60"/>
  <path class="fil0 str1" d="M2180 1523c-9,-28 18,-1 22,-21 20,-57 21,12 31,-50"/>
  <path class="fil0 str1" d="M1830 1147c1,23 23,21 37,19 10,1 26,-6 43,10"/>
  <path class="fil0 str0" d="M1821 807c19,6 10,-2 29,8 12,7 -15,36 -16,50 -2,15 9,75 0,85 -35,-9 -47,8 -60,18 -26,14 -24,0 -52,2 -21,8 -20,37 -40,47 -6,-1 1,-58 0,-65 0,-21 24,-19 40,-27 10,0 -9,-10 -10,-25 -24,-16 -27,-32 -33,-41 1,-43 49,1 50,-17 16,-15 3,-47 11,-50 11,1 8,0 34,1 16,26 32,17 47,14l0 0z"/>
  <path class="fil0 str1" d="M1946 603c17,-2 26,14 24,41"/>
  <path class="fil0 str1" d="M1897 624c15,45 24,-6 38,51"/>
  <path class="fil0 str1" d="M1938 1121c17,40 39,21 34,59"/>
  <path class="fil0 str1" d="M1960 981c-9,31 -2,54 0,88"/>
  <path class="fil0 str1" d="M1945 775c-1,-15 7,-18 10,-27 2,-3 5,-10 7,-14 1,-4 12,1 9,-14"/>
  <path class="fil0 str1" d="M1614 591c12,4 16,-17 22,-20 7,-9 9,-14 18,-18 14,6 9,18 16,16"/>
  <path class="fil0 str1" d="M1562 740c29,-6 19,5 28,9 15,5 8,1 23,6 35,11 13,40 38,41"/>
  <path class="fil0 str0" d="M1630 662c8,-102 99,-24 110,35 31,63 109,70 139,-3 88,-12 -18,133 50,173 32,55 -62,69 -12,129 47,74 -46,175 -87,85 -38,-103 -47,-109 -67,15 12,66 -29,164 -86,102 -52,-56 5,-147 -32,-209 -28,-55 -139,6 -99,-94 14,-25 64,-69 100,-76 71,-11 49,-19 26,-57 -20,-28 -53,-59 -42,-100l0 0z"/>
  <polyline class="fil0 str0" points="377,374 377,565 107,565 107,889 229,889 229,786 229,1287 94,1287 94,1449 377,1449 377,1287 696,1287 696,1449 978,1449 978,1287 843,1287 843,786 843,889 966,889 966,565 696,565 696,212 377,212 377,374 303,374 303,123 769,123 769,374 696,374 "/>
  <path class="fil0 str1" d="M556 384c10,29 -63,30 -57,0"/>
  <line class="fil0 str1" x1="598" y1="465" x2="463" y2= "465" />
  <path class="fil0 str2" d="M490 344c0,16 -14,29 -31,29 -16,0 -30,-13 -30,-29 0,-16 14,-28 30,-28 17,0 31,12 31,28l0 0z"/>
  <path class="fil0 str2" d="M467 343c0,14 -4,25 -8,25 -4,0 -7,-11 -7,-25 0,-14 3,-25 7,-25 4,0 8,11 8,25l0 0z"/>
  <path class="fil0 str2" d="M627 344c0,16 -13,29 -30,29 -17,0 -30,-13 -30,-29 0,-16 13,-28 30,-28 17,0 30,12 30,28l0 0z"/>
  <path class="fil0 str2" d="M604 343c0,14 -3,25 -7,25 -4,0 -7,-11 -7,-25 0,-14 3,-25 7,-25 4,0 7,11 7,25z"/>
  <path class="fil0 str1" d="M487 279c-17,-9 -53,-8 -67,0"/>
  <path class="fil0 str1" d="M634 279c-17,-9 -53,-8 -67,0"/>
  <path class="fil0 str0" d="M878 702c1,35 14,-26 22,27 3,13 11,40 13,53 5,-53 11,-12 16,-17 7,-11 -1,-36 0,-49 -1,-7 -8,-27 -14,-8"/>
  <polyline class="fil0 str2" points="500,873 562,969 512,1060 573,995 585,1026 630,1037 610,1003 608,977 645,906 585,953 500,873 "/>
  <polygon class="fil0 str3" points="606,839 143,429 328,874 117,992 397,949 446,967 197,1162 474,1111 578,1464 599,1121 683,1232 642,1089 907,1219 844,1116 718,977 792,952 704,902 965,454 668,822 561,684 "/>
  <path class="fil0 str1" d="M165 846c31,-17 -2,-53 39,-77"/>
  <path class="fil0 str1" d="M168 742c2,16 -7,22 -10,37 -3,10 -13,12 -18,20"/>
  <path class="fil0 str1" d="M180 1228c-3,-12 -9,-7 -13,-18 -4,-56 -10,-96 12,-103"/>
  <path class="fil0 str1" d="M132 1129c-14,6 -16,29 -1,38"/>
  <path class="fil0 str1" d="M484 711c11,1 17,-1 25,-10"/>
  <path class="fil0 str1" d="M7 1436c2,21 4,39 15,46 8,6 -14,25 14,39"/>
  <path class="fil0 str1" d="M59 1405c0,6 -17,9 -16,26 0,8 11,18 14,29 3,11 -1,23 -1,26 5,30 23,-14 28,39"/>
  <path class="fil0 str1" d="M1036 1523c4,-18 21,-18 26,-20 14,-26 3,-19 2,-44"/>
  <path class="fil0 str1" d="M1050 1409c-27,7 0,43 -16,49 -17,7 -6,33 -21,40 -16,7 -16,-10 -43,24"/>
  <path class="fil0 str1" d="M795 22c9,3 18,-4 25,-10 7,-4 17,-1 22,8 9,12 13,29 14,45 4,10 16,10 22,18 14,15 19,38 17,60"/>
  <path class="fil0 str1" d="M767 52c15,-3 33,1 43,16 12,19 12,23 20,44 2,7 0,39 6,44 10,9 15,6 5,27"/>
  <path class="fil0 str1" d="M144 178c19,-102 88,-168 165,-171"/>
  <path class="fil0 str1" d="M200 180c10,-92 144,-153 164,-115"/>
  <path class="fil0 str1" d="M713 1201c26,1 15,-14 46,-15"/>
  <path class="fil0 str1" d="M770 1208c0,34 -13,3 -32,23"/>
  <path class="fil0 str1" d="M463 1215c-27,5 2,-25 -38,-17"/>
  <path class="fil0 str1" d="M411 1211c-4,13 6,24 16,16"/>
  <path class="fil0 str1" d="M659 1304c-8,-12 -11,10 -13,11 -7,8 -10,-1 -16,5"/>
  <line class="fil0 str1" x1="632" y1="1358" x2="642" y2= "1346" />
 </g>
</svg>
